# ProBuilder 5.0.3
# https://unity3d.com/unity/features/worldbuilding/probuilder
# 2022-02-01 7:11:32 PM

mtllib ./Door_Frame.mtl
o Door Frame

g Door Frame
v -2.448475 3.829132 0.7042972
v -2.448475 0 0.7042972
v -1.698475 3.829132 0.7042972
v -1.698475 0 0.7042972
v 2.321251 0 0.7042972
v 3.071251 0 0.7042972
v 2.321251 3.829132 0.7042972
v 3.071251 3.829132 0.7042972
v -2.448475 4.329132 0.7042972
v -1.698475 4.329132 0.7042972
v 2.321251 4.329132 0.7042972
v 3.071251 4.329132 0.7042972
v -2.448475 3.829132 -8.642673E-07
v -1.698475 3.829132 -8.642673E-07
v -2.448475 0 -8.642673E-07
v -1.698475 0 -8.642673E-07
v 2.321251 0 -8.642673E-07
v 2.321251 3.829132 -8.642673E-07
v 3.071251 0 -8.642673E-07
v 3.071251 3.829132 -8.642673E-07
v -2.448475 4.329132 -8.642673E-07
v -1.698475 4.329132 -8.642673E-07
v 2.321251 4.329132 -8.642673E-07
v 3.071251 4.329132 -8.642673E-07

vt -2.448475 3.829132
vt -2.448475 0
vt -1.698475 3.829132
vt -1.698475 0
vt 2.321251 0
vt 3.071251 0
vt 2.321251 3.829132
vt 3.071251 3.829132
vt -2.448475 4.329132
vt -1.698475 4.329132
vt 2.321251 4.329132
vt 3.071251 4.329132
vt 2.448475 3.829132
vt 1.698475 3.829132
vt 2.448475 0
vt 1.698475 0
vt -2.321251 0
vt -2.321251 3.829132
vt -3.071251 0
vt -3.071251 3.829132
vt 2.448475 4.329132
vt 1.698475 4.329132
vt -2.321251 4.329132
vt -3.071251 4.329132
vt 2.321251 0.7042972
vt -1.698475 0.7042972
vt -8.642673E-07 0
vt 0.7042972 0
vt -8.642673E-07 3.829132
vt 0.7042972 3.829132
vt -0.7042972 0
vt -0.7042972 3.829132

vn 0 0 1
vn 0 0 -1
vn 0 -1 0
vn -1 0 0
vn 1 0 0

usemtl Objects
f 1/1/1 2/2/1 4/4/1 3/3/1
f 5/5/1 6/6/1 8/8/1 7/7/1
f 1/1/1 3/3/1 10/10/1 9/9/1
f 11/11/1 7/7/1 8/8/1 12/12/1
f 3/3/1 7/7/1 11/11/1 10/10/1
f 13/13/2 14/14/2 16/16/2 15/15/2
f 17/17/2 18/18/2 20/20/2 19/19/2
f 13/13/2 21/21/2 22/22/2 14/14/2
f 23/23/2 24/24/2 20/20/2 18/18/2
f 14/14/2 22/22/2 23/23/2 18/18/2
f 7/25/3 3/26/3 14/4/3 18/5/3
f 17/27/4 5/28/4 7/30/4 18/29/4
f 4/31/5 16/27/5 14/29/5 3/32/5

